<svg width="108" height="39" viewBox="0 0 108 39" fill="none" xmlns="http://www.w3.org/2000/svg">
    <path d="M16.5227 13.0682L13.5114 13.9205C13.322 13.4186 13.0426 12.9309 12.6733 12.4574C12.3134 11.9744 11.821 11.5767 11.196 11.2642C10.571 10.9517 9.77083 10.7955 8.79545 10.7955C7.46023 10.7955 6.34754 11.1032 5.45739 11.7188C4.5767 12.3248 4.13636 13.0966 4.13636 14.0341C4.13636 14.8674 4.43939 15.5256 5.04545 16.0085C5.65152 16.4915 6.59848 16.8939 7.88636 17.2159L11.125 18.0114C13.0758 18.4848 14.5294 19.2093 15.4858 20.1847C16.4422 21.1506 16.9205 22.3958 16.9205 23.9205C16.9205 25.1705 16.5606 26.2879 15.8409 27.2727C15.1307 28.2576 14.1364 29.0341 12.858 29.6023C11.5795 30.1705 10.0928 30.4545 8.39773 30.4545C6.17235 30.4545 4.33049 29.9716 2.87216 29.0057C1.41383 28.0398 0.49053 26.6288 0.102273 24.7727L3.28409 23.9773C3.58712 25.1515 4.16004 26.0322 5.00284 26.6193C5.85511 27.2064 6.9678 27.5 8.34091 27.5C9.90341 27.5 11.1439 27.1686 12.0625 26.5057C12.9905 25.8333 13.4545 25.0284 13.4545 24.0909C13.4545 23.3333 13.1894 22.6989 12.6591 22.1875C12.1288 21.6667 11.3144 21.2784 10.2159 21.0227L6.57955 20.1705C4.58144 19.697 3.11364 18.9631 2.17614 17.9688C1.24811 16.965 0.784091 15.7102 0.784091 14.2045C0.784091 12.9735 1.12973 11.8845 1.82102 10.9375C2.52178 9.99053 3.47349 9.24716 4.67614 8.70739C5.88826 8.16761 7.26136 7.89773 8.79545 7.89773C10.9545 7.89773 12.6496 8.37121 13.8807 9.31818C15.1212 10.2652 16.0019 11.5152 16.5227 13.0682ZM21.9666 30V8.18182H25.3189V30H21.9666ZM23.6712 4.54545C23.0178 4.54545 22.4543 4.32292 21.9808 3.87784C21.5168 3.43277 21.2848 2.89773 21.2848 2.27273C21.2848 1.64773 21.5168 1.11269 21.9808 0.667613C22.4543 0.222538 23.0178 0 23.6712 0C24.3246 0 24.8833 0.222538 25.3473 0.667613C25.8208 1.11269 26.0575 1.64773 26.0575 2.27273C26.0575 2.89773 25.8208 3.43277 25.3473 3.87784C24.8833 4.32292 24.3246 4.54545 23.6712 4.54545ZM40.2656 38.6364C38.6463 38.6364 37.2543 38.428 36.0895 38.0114C34.9247 37.6042 33.9541 37.0644 33.1776 36.392C32.4105 35.7292 31.7997 35.0189 31.3452 34.2614L34.0156 32.3864C34.3187 32.7841 34.7022 33.2386 35.1662 33.75C35.6302 34.2708 36.2647 34.7206 37.0696 35.0994C37.884 35.4877 38.9493 35.6818 40.2656 35.6818C42.027 35.6818 43.4806 35.2557 44.6264 34.4034C45.7723 33.5511 46.3452 32.2159 46.3452 30.3977V25.9659H46.0611C45.8149 26.3636 45.4645 26.8561 45.0099 27.4432C44.5649 28.0208 43.9209 28.5369 43.0781 28.9915C42.2448 29.4366 41.1179 29.6591 39.6974 29.6591C37.9361 29.6591 36.3546 29.2424 34.9531 28.4091C33.5611 27.5758 32.4579 26.3636 31.6435 24.7727C30.8385 23.1818 30.4361 21.25 30.4361 18.9773C30.4361 16.7424 30.8291 14.7964 31.6151 13.1392C32.401 11.4725 33.4948 10.1847 34.8963 9.27557C36.2978 8.35701 37.9171 7.89773 39.7543 7.89773C41.1747 7.89773 42.3016 8.13447 43.1349 8.60795C43.9777 9.07197 44.6217 9.60227 45.0668 10.1989C45.5213 10.786 45.8717 11.2689 46.1179 11.6477H46.4588V8.18182H49.6974V30.625C49.6974 32.5 49.2713 34.0246 48.419 35.1989C47.5762 36.3826 46.4399 37.2491 45.0099 37.7983C43.5895 38.357 42.008 38.6364 40.2656 38.6364ZM40.152 26.6477C41.4967 26.6477 42.633 26.34 43.5611 25.7244C44.4891 25.1089 45.1946 24.2235 45.6776 23.0682C46.1605 21.9129 46.402 20.5303 46.402 18.9205C46.402 17.3485 46.1652 15.9612 45.6918 14.7585C45.2183 13.5559 44.5175 12.6136 43.5895 11.9318C42.6615 11.25 41.5156 10.9091 40.152 10.9091C38.7315 10.9091 37.5478 11.2689 36.6009 11.9886C35.6634 12.7083 34.9579 13.6742 34.4844 14.8864C34.0204 16.0985 33.7884 17.4432 33.7884 18.9205C33.7884 20.4356 34.0251 21.7756 34.4986 22.9403C34.9815 24.0956 35.6918 25.0047 36.6293 25.6676C37.5762 26.321 38.7505 26.6477 40.152 26.6477ZM55.8338 30V8.18182H59.0724V11.5909H59.3565C59.8111 10.4261 60.545 9.52178 61.5582 8.87784C62.5715 8.22443 63.7884 7.89773 65.2088 7.89773C66.6482 7.89773 67.8461 8.22443 68.8026 8.87784C69.7685 9.52178 70.5213 10.4261 71.0611 11.5909H71.2884C71.8471 10.464 72.6851 9.56913 73.8026 8.90625C74.92 8.2339 76.2599 7.89773 77.8224 7.89773C79.7732 7.89773 81.3688 8.50852 82.6094 9.73011C83.8499 10.9422 84.4702 12.8314 84.4702 15.3977V30H81.1179V15.3977C81.1179 13.7879 80.6776 12.6373 79.7969 11.946C78.9162 11.2547 77.8793 10.9091 76.6861 10.9091C75.152 10.9091 73.9635 11.3731 73.1207 12.3011C72.2779 13.2197 71.8565 14.3845 71.8565 15.7955V30H68.4474V15.0568C68.4474 13.8163 68.045 12.8172 67.2401 12.0597C66.4351 11.2926 65.3982 10.9091 64.1293 10.9091C63.258 10.9091 62.4437 11.1411 61.6861 11.6051C60.938 12.0691 60.3319 12.7131 59.8679 13.5369C59.4134 14.3513 59.1861 15.2936 59.1861 16.3636V30H55.8338ZM97.0199 30.5114C95.6373 30.5114 94.3826 30.2509 93.2557 29.7301C92.1288 29.1998 91.2339 28.4375 90.571 27.4432C89.9081 26.4394 89.5767 25.2273 89.5767 23.8068C89.5767 22.5568 89.8229 21.5436 90.3153 20.767C90.8078 19.9811 91.4659 19.3655 92.2898 18.9205C93.1136 18.4754 94.0227 18.1439 95.017 17.9261C96.0208 17.6989 97.0294 17.5189 98.0426 17.3864C99.3684 17.2159 100.443 17.0881 101.267 17.0028C102.1 16.9081 102.706 16.7519 103.085 16.5341C103.473 16.3163 103.668 15.9375 103.668 15.3977V15.2841C103.668 13.8826 103.284 12.7936 102.517 12.017C101.759 11.2405 100.609 10.8523 99.0653 10.8523C97.465 10.8523 96.2102 11.2027 95.3011 11.9034C94.392 12.6042 93.7528 13.3523 93.3835 14.1477L90.2017 13.0114C90.7699 11.6856 91.5275 10.6534 92.4744 9.91477C93.4309 9.16667 94.4725 8.64583 95.5994 8.35227C96.7358 8.04924 97.8532 7.89773 98.9517 7.89773C99.6525 7.89773 100.457 7.98295 101.366 8.15341C102.285 8.31439 103.17 8.65057 104.023 9.16193C104.884 9.6733 105.599 10.4451 106.168 11.4773C106.736 12.5095 107.02 13.892 107.02 15.625V30H103.668V27.0455H103.497C103.27 27.5189 102.891 28.0256 102.361 28.5653C101.83 29.1051 101.125 29.5644 100.244 29.9432C99.3636 30.322 98.2888 30.5114 97.0199 30.5114ZM97.5312 27.5C98.857 27.5 99.9744 27.2396 100.884 26.7188C101.802 26.1979 102.493 25.5256 102.957 24.7017C103.431 23.8778 103.668 23.0114 103.668 22.1023V19.0341C103.526 19.2045 103.213 19.3608 102.73 19.5028C102.257 19.6354 101.707 19.7538 101.082 19.858C100.467 19.9527 99.8655 20.0379 99.2784 20.1136C98.7008 20.1799 98.232 20.2367 97.8722 20.2841C97.0009 20.3977 96.1866 20.5824 95.429 20.8381C94.6809 21.0843 94.0748 21.4583 93.6108 21.9602C93.1563 22.4527 92.929 23.125 92.929 23.9773C92.929 25.142 93.3598 26.0227 94.2216 26.6193C95.0928 27.2064 96.196 27.5 97.5312 27.5Z" fill="black"/>
</svg>
