<svg width="28" height="25" viewBox="0 0 28 25" fill="none" xmlns="http://www.w3.org/2000/svg">
<path d="M1.94157 12.0537L7.70207 14.2037L9.93174 21.3743C10.0744 21.8336 10.636 22.0033 11.0087 21.6986L14.2197 19.0809C14.5563 18.8067 15.0357 18.793 15.3875 19.0483L21.179 23.2531C21.5777 23.5429 22.1427 23.3244 22.2427 22.8426L26.4852 2.43499C26.5944 1.90865 26.0772 1.46957 25.5761 1.6634L1.93482 10.7835C1.35141 11.0085 1.35649 11.8345 1.94157 12.0537ZM9.57241 13.0592L20.8306 6.12532C21.0329 6.00107 21.2411 6.27466 21.0673 6.43582L11.7761 15.0725C11.4495 15.3765 11.2388 15.7833 11.1792 16.2249L10.8627 18.5704C10.8207 18.8836 10.3808 18.9147 10.2944 18.6116L9.07716 14.3345C8.93774 13.8467 9.14091 13.3256 9.57241 13.0592Z" fill="white"/>
</svg>
